# xmcd
# 
# Track frame offsets:
#     150
#     20030
#     29611
#     43773
#     54554
#     63804
#     77358
#     88394
#     99813
#     109135
#     119142
#     135411
#     150388
#     165337
#     178213
#     192207
#     205153
#     219631
#     227823
#     241244
# 
# Disc length: 3385
# 
# Revision: 5
# Processed by: cddbd v1.5.2PL0 Copyright (c) Steve Scherf et al.
# Submitted via: fre:ac v1.0.31
# 
DISCID=0e0d3714
DTITLE=Various Artist - Country Gold (4 CD-Box) CD 1
DYEAR=2002
DGENRE=Country
TTITLE0=Tanya Tucker - Delta Dawn (Live)
TTITLE1=Freddy Fender - But I Do
TTITLE2=Bonnie Taylor - Naturally
TTITLE3=Conway Twitty - Have I Been Away Too Long
TTITLE4=Don Williams - Emmylou Harris - Apartement 9
TTITLE5=Willie Nelson - No Tomorrrow In Sight
TTITLE6=Waylon Jennings - Dream Baby
TTITLE7=Wanda Jackson - In The Middle Of A Heartache
TTITLE8=Frankie Laine - Rawhide
TTITLE9=Johnny Cash - Rock Island Line
TTITLE10=Lynn Anderson - The Devil Went Down To Georgia
TTITLE11=Bellamy Brothers - Lovers Live Longer
TTITLE12=Kingston Trio - Tom Dooley
TTITLE13=Johnny Cash - Folsom Prison Blues
TTITLE14=Willie Nelson - Home Is Where You're Happy
TTITLE15=Lynn Anderson - Rose Garden
TTITLE16=Bellamy Brothers - If I Said You Had A Beautiful Body (Would You Hold It Against Me)
TTITLE17=Willie Nelson - You Wouldn't Cross The Street
TTITLE18=Barbara Fairchild - Crazy Love
TTITLE19=Ronnie McDowell - Wandering Eyes
EXTD=YEAR: 2002 ID3G:   2 204879-203\nTIM The International Music Company AG, Hamburg, Germany
EXTT0=
EXTT1=
EXTT2=
EXTT3=
EXTT4=
EXTT5=
EXTT6=
EXTT7=
EXTT8=
EXTT9=
EXTT10=
EXTT11=
EXTT12=
EXTT13=
EXTT14=
EXTT15=
EXTT16=
EXTT17=
EXTT18=
EXTT19=
PLAYORDER=
